<svg xmlns="http://www.w3.org/2000/svg" xmlns:xlink="http://www.w3.org/1999/xlink" version="1.1" x="0px" y="0px" viewBox="0 0 100 125" enable-background="new 0 0 100 100" xml:space="preserve"><g><path fill="#000000" d="M43.507,53.104c0,4.513,3.651,8.165,8.163,8.165c4.513,0,8.164-3.652,8.164-8.165   c0-4.511-3.651-8.163-8.164-8.163C47.158,44.941,43.507,48.594,43.507,53.104z"/></g><g><path fill="#000000" d="M88.1,42.391c-4.661-16.182-19.574-28.066-37.232-28.066c-17.723,0-32.687,11.966-37.291,28.235   c-1.333,6.348,2.716,7.323,3.101,7.323h14.462c5.03,0,7.592-3.518,7.986-4.105c2.522-4.315,7.232-7.282,12.545-7.282   c5.279,0,9.901,2.924,12.453,7.192l0.005-0.03c0,0,2.582,4.226,8.067,4.226h12.829C85.412,49.883,89.553,48.906,88.1,42.391z"/></g><g><path fill="#000000" d="M88.091,63.632c1.127-4.943-0.948-6.723-2.217-7.304H71.272c-4.039,0.375-6.31,2.982-6.938,3.847   c-2.511,4.452-7.355,7.54-12.771,7.54c-5.536,0-10.333-3.228-12.793-7.841c-0.86-1.066-3.071-3.209-6.708-3.546H15.828   c-1.27,0.581-3.344,2.36-2.217,7.304c0.022,0.104,0.032,0.18,0.053,0.277c4.688,16.137,19.577,27.978,37.203,27.978   c17.543,0,32.365-11.733,37.13-27.753C88.028,63.965,88.047,63.819,88.091,63.632z"/></g><text x="0" y="115" fill="#000000" font-size="5px" font-weight="bold" font-family="'Helvetica Neue', Helvetica, Arial-Unicode, Arial, Sans-serif">Created by Iconic</text><text x="0" y="120" fill="#000000" font-size="5px" font-weight="bold" font-family="'Helvetica Neue', Helvetica, Arial-Unicode, Arial, Sans-serif">from the Noun Project</text></svg>